<?xml version="1.0" encoding="UTF-8"?>
<svg id="Layer_1" xmlns="http://www.w3.org/2000/svg" version="1.1" viewBox="0 0 1024 1024">
  <!-- Generator: Adobe Illustrator 30.2.1, SVG Export Plug-In . SVG Version: 2.1.1 Build 1)  -->
  <defs>
    <style>
      .st0 {
        fill: #fff;
      }
    </style>
  </defs>
  <path d="M954.8,293.84l1.44,188.24c.01,1.83-1.45,3.32-3.27,3.35l-377.25,5.83c-3.33.05-4.52,4.43-1.68,6.16l382.45,233.32c1.57.96,2.06,3,1.11,4.56l-97.68,160.55c-.95,1.57-3,2.07-4.57,1.11l-418.72-254.75c-1.68-1.02-3.87-.37-4.72,1.4l-160.51,333.91c-.79,1.65-2.77,2.35-4.43,1.56l-192.25-91.7c-.1-.05-.2-.1-.3-.16l-6.9-4.2c-1.46-.89-2.01-2.73-1.27-4.27l181.13-378.35c1.06-2.22-.58-4.79-3.04-4.76l-160.82,1.98c-1.82.02-3.32-1.43-3.36-3.25l-4.13-188.41c-.01-.63.15-1.26.48-1.8l.29-.48c.6-.98,1.66-1.58,2.81-1.6l262.26-2.68c1.27-.01,2.41-.74,2.96-1.88L468.26,40.67c.8-1.66,2.78-2.35,4.44-1.56l198.76,95.64c1.64.79,2.34,2.76,1.57,4.41l-71.62,152.12c-1.05,2.23.6,4.78,3.06,4.74l346.97-5.49c.63,0,1.24.16,1.78.48h0c.98.6,1.59,1.66,1.6,2.81Z"/>
  <g>
    <path class="st0" d="M113.75,327.97l48.15-.3.1,15.24-30.14.19.26,42.27,27.19-.17.1,15.24-27.19.17.38,60.97-18.02.11-.84-133.72Z"/>
    <path class="st0" d="M243.67,397.31c.15,23.61-2.38,40.41-7.57,50.37-5.19,9.97-13.97,14.99-26.32,15.06-12.99.08-22.18-5.2-27.55-15.85-5.32-10.42-8.06-28.96-8.23-55.64-.15-23.79,2.34-40.63,7.48-50.54,5.19-9.96,14.05-14.98,26.58-15.06,11.2-.07,19.54,3.72,25.02,11.36,3.61,5.12,6.25,12.41,7.93,21.86,1.67,8.77,2.56,21.58,2.67,38.44ZM224.8,399.33c-.14-23.15-1.28-38.5-3.4-46.05-2.13-7.61-6.39-11.39-12.8-11.35-6.41.04-10.66,3.56-12.75,10.56-2.03,7.06-2.99,21.21-2.85,42.46.12,19.57,1.3,33.14,3.55,40.68,2.3,7.15,6.53,10.7,12.71,10.66,6.06-.04,10.2-3.41,12.41-10.12,2.21-6.65,3.26-18.93,3.15-36.83Z"/>
    <path class="st0" d="M261.07,327.04l23.73-.15c9.81-.06,17.13,2.23,21.95,6.88,6.1,6.02,9.19,15.27,9.27,27.74.06,9.58-1.5,17.29-4.66,23.11-3.17,5.82-7.72,9.45-13.66,10.87l25,64.89-18.27.11-24.92-65.32.41,65.48-18.01.11-.84-133.72ZM279.46,386.17c6.98-.04,11.91-1.69,14.78-4.94,2.87-3.25,4.27-8.72,4.23-16.4-.03-4.16-.35-7.71-.98-10.65-.63-2.94-1.59-5.33-2.9-7.17-1.31-1.84-2.99-3.19-5.05-4.04-2.06-.85-4.5-1.27-7.33-1.25l-3.03.02.28,44.43Z"/>
    <path class="st0" d="M342.13,326.54l15.42-.1,12.12,54.49c1.48,6.81,2.84,13.62,4.07,20.46,1.22,6.83,2.35,14,3.38,21.5.11-.98.19-1.75.25-2.3.05-.55.11-.94.17-1.17l2.42-15.35,2.16-14.56,1.93-9.63,10.15-53.68,15.59-.1,13.13,133.64-17.23.11-3.31-45.36c-.13-2.31-.24-4.3-.34-5.97-.1-1.67-.15-3.06-.15-4.16l-.89-17.92-.54-16.45c0-.12-.02-.36-.05-.74-.03-.38-.08-.88-.14-1.51l-.42,2.69c-.44,3.18-.84,5.95-1.2,8.32-.36,2.37-.68,4.36-.96,5.98l-2.18,12.23-.84,4.59-10.89,58.44-12.13.08-10.88-50.34c-1.49-6.63-2.81-13.36-3.98-20.2-1.17-6.83-2.24-14-3.21-21.5l-4.62,92.18-16.97.11,10.16-133.79Z"/>
    <path class="st0" d="M456.02,325.83l14.03-.09,29.5,133.54-17.84.11-5.19-26.04-26.5.17-4.95,26.1-17.32.11,28.26-133.9ZM473.84,419.43l-4.12-21.28c-2.75-14.47-5.01-29.93-6.79-46.38-.76,8.03-1.75,16.16-2.97,24.4-1.22,8.24-2.67,16.98-4.34,26.23l-3.18,17.17,21.39-.13Z"/>
    <path class="st0" d="M509.29,325.49l48.15-.3.1,15.24-30.14.19.26,42.26,27.19-.17.09,15.24-27.19.17.38,60.97-18.01.11-.84-133.72Z"/>
    <path class="st0" d="M571.3,325.11l17.67-.11.59,94.49c.06,9.64.97,16.05,2.72,19.21,1.81,3.16,5.34,4.73,10.6,4.7,5.25-.03,8.71-1.44,10.37-4.22,1.72-2.84,2.54-8.59,2.49-17.25l-.61-97.09,17.67-.11.61,97.09c.09,14.55-2.07,24.41-6.48,29.58-5.28,5.87-13.37,8.83-24.28,8.9-12.01.08-20.49-3.62-25.45-11.1-3.44-5.12-5.2-14.98-5.3-29.59l-.59-94.49Z"/>
    <path class="st0" d="M642.75,324.66l58.63-.37.1,15.76-20.18.13.74,117.96-17.67.11-.74-117.96-20.79.13-.1-15.76Z"/>
    <path class="st0" d="M711.34,324.23l17.67-.11.59,94.49c.06,9.64.97,16.05,2.72,19.21,1.81,3.16,5.34,4.73,10.6,4.7,5.25-.03,8.71-1.44,10.37-4.22,1.71-2.84,2.54-8.59,2.49-17.25l-.61-97.09,17.67-.11.61,97.09c.09,14.55-2.07,24.41-6.48,29.58-5.28,5.87-13.37,8.83-24.28,8.9-12.01.07-20.49-3.62-25.45-11.1-3.44-5.12-5.2-14.98-5.3-29.59l-.59-94.49Z"/>
    <path class="st0" d="M793.44,323.72l23.73-.15c9.82-.06,17.13,2.23,21.95,6.88,6.1,6.02,9.19,15.27,9.27,27.75.06,9.58-1.49,17.29-4.66,23.11-3.17,5.82-7.72,9.45-13.66,10.87l25,64.89-18.27.11-24.92-65.32.41,65.48-18.01.11-.84-133.72ZM811.82,382.84c6.99-.04,11.91-1.69,14.78-4.94,2.87-3.25,4.28-8.72,4.23-16.4-.03-4.16-.35-7.71-.98-10.65-.62-2.94-1.59-5.33-2.9-7.17-1.31-1.84-2.99-3.19-5.05-4.04-2.06-.85-4.5-1.27-7.33-1.25l-3.03.02.28,44.43Z"/>
    <path class="st0" d="M887.23,323.13l14.03-.09,29.5,133.54-17.84.11-5.19-26.04-26.5.17-4.95,26.1-17.32.11,28.26-133.9ZM905.06,416.73l-4.12-21.28c-2.75-14.47-5.01-29.93-6.78-46.38-.76,8.03-1.75,16.16-2.97,24.4s-2.67,16.98-4.34,26.23l-3.18,17.17,21.39-.13Z"/>
  </g>
</svg>